<?xml version="1.0" encoding="UTF-8" standalone="no"?>
<!DOCTYPE svg PUBLIC "-//W3C//DTD SVG 1.1//EN" "http://www.w3.org/Graphics/SVG/1.1/DTD/svg11.dtd">
<svg width="100%" height="100%" viewBox="0 0 675 723" version="1.1" xmlns="http://www.w3.org/2000/svg" xmlns:xlink="http://www.w3.org/1999/xlink" xml:space="preserve" xmlns:serif="http://www.serif.com/" style="fill-rule:evenodd;clip-rule:evenodd;stroke-linejoin:round;stroke-miterlimit:2;">
    <g transform="matrix(1,0,0,1,-310.228735,-110.398041)">
        <g id="Background" transform="matrix(2.75,0,0,2.75,-57.334147,-67.573099)">
            <path d="M182.271,83.822C182.601,84.057 208.221,84.552 208.571,83.95C235.309,84.399 296.55,83.824 303.992,83.777C304.23,84.044 330.119,84.238 330.292,84.034C331.549,84.046 350.963,81.826 365.635,96.364C377.256,107.879 378.073,120.939 378.522,124.498C379.092,129.024 378.721,238.581 378.687,248.501C378.57,283.253 380.497,294.921 369.856,308.773C367.959,311.243 355.865,326.987 335.498,327.093C324.306,327.152 228.944,327.65 195.586,327.058C194.099,323.046 196.708,318.511 197.641,316.593C202.037,309.944 208.069,304.934 209.115,304.065C210.186,303.176 215.915,298.418 225.49,298.168C260.153,297.262 275.306,301.755 290.408,288.394C294.892,284.427 324.176,254.108 324.625,253.615C330.44,247.23 323.936,236.864 313.404,245.378C311.685,246.767 303.56,252.914 302.668,253.693C295.308,260.115 292.906,259.657 291.35,264.46C290.873,265.932 287.637,275.921 276.556,276.913C273.505,277.186 247.57,277.011 247.524,277.008C241.683,276.666 241.639,272.31 242.392,270.451C244.338,265.64 251.195,267.37 274.491,267.159C278.664,267.121 282.605,263.428 281.551,258.49C280.052,251.463 273.448,252.794 257.499,252.743C235.919,252.674 236.081,244.784 216.448,249.28C215.434,249.512 209.852,250.791 204.605,254.646C199.195,258.622 149.363,307.043 145.439,311.674C140.77,308.246 134.742,296.767 133.926,286.459C133.818,285.097 133.198,126.952 134.327,120.471C134.696,118.355 136.878,105.839 146.571,96.574C161.134,82.653 177.877,83.871 182.271,83.822Z" style="fill:rgb(55,67,83);"/>
            <path d="M223.471,238.046C209.554,239.426 203.027,241.391 189.907,253.93C188.435,255.336 174.741,268.425 171.546,271.548C165.363,277.593 157.116,266.78 156.91,260.483C156.834,258.165 156.846,181.952 156.853,167.499C156.856,160.519 154.758,146.009 169.485,143.389C172.029,142.936 315.779,143.235 328.5,143.262C339.121,143.284 351.475,141.289 354.848,154.406C355.886,158.442 355.363,158.511 355.3,206.501C355.227,261.622 355.763,261.854 353.907,265.686C349.132,275.549 343.228,273.66 322.453,273.902C313.513,274.006 335.786,263.165 337.039,250.459C338.493,235.721 321.598,227.547 310.748,234.875C304.989,238.765 293.119,248.439 291.62,249.661C289.658,251.26 289.275,250.156 283.266,244.648C319.108,214.589 318.136,200.444 313.509,186.496C308.2,170.491 286.818,160.983 269.688,169.883C264.744,172.452 258.861,179.134 258.043,180.062C254.567,184.01 255.289,177.8 243.634,170.269C228.869,160.728 195.013,168.594 196.866,201.461C197.524,213.141 207.101,222.981 208.541,224.46C212.021,228.036 211.852,228.133 215.354,231.645C222.004,238.315 222.578,237.562 223.471,238.046Z" style="fill:rgb(254,254,254);"/>
            <path d="M223.471,238.046C222.578,237.562 222.004,238.315 215.354,231.645C211.852,228.133 212.021,228.036 208.541,224.46C207.101,222.981 197.524,213.141 196.866,201.461C195.013,168.594 228.869,160.728 243.634,170.269C255.289,177.8 254.567,184.01 258.043,180.062C258.861,179.134 264.744,172.452 269.688,169.883C286.818,160.983 308.2,170.491 313.509,186.496C318.136,200.444 319.108,214.589 283.266,244.648C274.052,242.135 273.923,243.233 252.487,242.959C244.753,242.86 243.083,237.752 223.471,238.046Z" style="fill:rgb(223,126,120);"/>
            <path d="M145.439,311.674C149.363,307.043 199.195,258.622 204.605,254.646C209.852,250.791 215.434,249.512 216.448,249.28C236.081,244.784 235.919,252.674 257.499,252.743C273.448,252.794 280.052,251.463 281.551,258.49C282.605,263.428 278.664,267.121 274.491,267.159C251.195,267.37 244.338,265.64 242.392,270.451C241.639,272.31 241.683,276.666 247.524,277.008C247.57,277.011 273.505,277.186 276.556,276.913C287.637,275.921 290.873,265.932 291.35,264.46C292.906,259.657 295.308,260.115 302.668,253.693C303.56,252.914 311.685,246.767 313.404,245.378C323.936,236.864 330.44,247.23 324.625,253.615C324.176,254.108 294.892,284.427 290.408,288.394C275.306,301.755 260.153,297.262 225.49,298.168C215.915,298.418 210.186,303.176 209.115,304.065C208.069,304.934 202.037,309.944 197.641,316.593C196.708,318.511 194.099,323.046 195.586,327.058C191.802,327.238 175.715,327.11 175.515,327.104C160.662,326.728 146.879,315.445 145.439,311.674Z" style="fill:rgb(157,158,164);"/>
            <path d="M304.108,81.463C304.109,81.33 302.677,71.667 309.863,66.962C310.702,66.412 315.853,63.04 322.358,65.833C331.434,69.729 329.706,80.478 330.292,83.649C329.887,97.541 331.118,108.947 328.025,112.645C318.449,124.097 304.258,117.007 304.109,104.51C304.094,103.309 304.148,103.338 304.121,89.501C304.117,87.397 304.203,81.954 304.108,81.463Z" style="fill:rgb(157,158,165);"/>
            <g transform="matrix(1,0,0,1,-121.721253,0)">
                <path d="M304.04,81.497C304.041,81.364 303.84,72.419 309.863,66.962C310.606,66.288 315.853,63.04 322.358,65.833C331.434,69.729 329.706,80.478 330.292,83.649C329.887,97.541 330.879,109.015 327.786,112.714C318.209,124.166 304.224,116.528 304.109,104.51C304.097,103.309 304.148,103.338 304.121,89.501C304.117,87.397 304.135,81.988 304.04,81.497Z" style="fill:rgb(157,158,165);"/>
            </g>
        </g>
    </g>
</svg>
