<?xml version="1.0" encoding="UTF-8" standalone="no"?><!DOCTYPE svg PUBLIC "-//W3C//DTD SVG 1.1//EN" "http://www.w3.org/Graphics/SVG/1.1/DTD/svg11.dtd"><svg width="100%" height="100%" viewBox="0 0 1200 292" version="1.1" xmlns="http://www.w3.org/2000/svg" xmlns:xlink="http://www.w3.org/1999/xlink" xml:space="preserve" xmlns:serif="http://www.serif.com/" style="fill-rule:evenodd;clip-rule:evenodd;stroke-linejoin:round;stroke-miterlimit:2;"><g><path d="M53.885,21.178c0.366,0.26 28.765,0.809 29.153,0.141c29.639,0.498 97.523,-0.14 105.773,-0.192c0.264,0.296 28.961,0.512 29.153,0.286c1.393,0.012 22.914,-2.448 39.177,13.667c12.882,12.764 13.788,27.241 14.285,31.186c0.632,5.017 0.221,126.458 0.183,137.454c-0.131,38.522 2.006,51.456 -9.789,66.811c-2.103,2.738 -15.509,20.189 -38.085,20.307c-12.407,0.065 -118.113,0.617 -155.09,-0.039c-1.649,-4.447 1.244,-9.475 2.278,-11.601c4.872,-7.37 11.559,-12.924 12.718,-13.886c1.187,-0.986 7.538,-6.26 18.151,-6.538c38.424,-1.004 55.22,3.976 71.96,-10.834c4.97,-4.397 37.431,-38.005 37.929,-38.552c6.446,-7.078 -0.764,-18.569 -12.438,-9.131c-1.905,1.54 -10.911,8.354 -11.901,9.217c-8.158,7.119 -10.821,6.611 -12.546,11.936c-0.528,1.631 -4.116,12.704 -16.398,13.803c-3.383,0.303 -32.13,0.108 -32.182,0.105c-6.475,-0.378 -6.523,-5.208 -5.689,-7.268c2.158,-5.332 9.758,-3.415 35.581,-3.649c4.626,-0.042 8.994,-4.136 7.826,-9.609c-1.662,-7.79 -8.983,-6.315 -26.662,-6.371c-23.92,-0.076 -23.741,-8.823 -45.504,-3.838c-1.124,0.257 -7.311,1.674 -13.127,5.949c-5.997,4.407 -61.234,58.08 -65.584,63.214c-5.176,-3.8 -11.857,-16.524 -12.762,-27.95c-0.12,-1.51 -0.808,-176.81 0.445,-183.994c0.409,-2.346 2.828,-16.219 13.572,-26.489c16.143,-15.431 34.702,-14.081 39.573,-14.135Z" style="fill:#374353;"/><path d="M99.554,192.132c-15.426,1.529 -22.661,3.707 -37.205,17.607c-1.631,1.559 -16.811,16.067 -20.352,19.529c-6.854,6.701 -15.995,-5.285 -16.224,-12.265c-0.084,-2.57 -0.071,-87.05 -0.063,-103.071c0.004,-7.737 -2.322,-23.821 14.003,-26.726c2.819,-0.502 162.163,-0.17 176.264,-0.141c11.773,0.024 25.467,-2.186 29.206,12.353c1.151,4.474 0.572,4.55 0.501,57.746c-0.081,61.1 0.513,61.358 -1.543,65.606c-5.293,10.933 -11.838,8.839 -34.866,9.108c-9.91,0.115 14.779,-11.902 16.168,-25.986c1.612,-16.337 -17.117,-25.398 -29.143,-17.275c-6.384,4.312 -19.541,15.035 -21.203,16.39c-2.175,1.773 -2.6,0.549 -9.26,-5.557c39.729,-33.32 38.653,-48.999 33.524,-64.46c-5.886,-17.741 -29.586,-28.282 -48.575,-18.415c-5.48,2.847 -12.002,10.254 -12.908,11.283c-3.853,4.376 -3.053,-2.508 -15.972,-10.856c-16.367,-10.575 -53.895,-1.857 -51.841,34.575c0.73,12.948 11.346,23.855 12.941,25.495c3.858,3.964 3.67,4.071 7.552,7.964c7.372,7.393 8.008,6.558 8.998,7.095Z" style="fill:#fefefe;"/><path d="M99.554,192.132c-0.989,-0.537 -1.626,0.298 -8.998,-7.095c-3.882,-3.893 -3.694,-4.001 -7.552,-7.964c-1.595,-1.639 -12.211,-12.547 -12.941,-25.495c-2.054,-36.432 35.475,-45.151 51.841,-34.575c12.92,8.348 12.119,15.232 15.972,10.856c0.906,-1.029 7.428,-8.436 12.908,-11.283c18.988,-9.866 42.689,0.674 48.575,18.415c5.129,15.461 6.206,31.14 -33.524,64.46c-10.214,-2.785 -10.356,-1.569 -34.117,-1.872c-8.574,-0.11 -10.425,-5.772 -32.164,-5.446Z" style="fill:#df7e78;"/><path d="M13.058,273.746c4.349,-5.134 59.587,-58.807 65.584,-63.214c5.816,-4.274 12.003,-5.691 13.127,-5.949c21.763,-4.984 21.584,3.762 45.504,3.838c17.679,0.056 25,-1.419 26.662,6.371c1.168,5.473 -3.2,9.567 -7.826,9.609c-25.823,0.234 -33.423,-1.683 -35.581,3.649c-0.834,2.06 -0.786,6.89 5.689,7.268c0.051,0.003 28.799,0.198 32.182,-0.105c12.283,-1.099 15.87,-12.172 16.398,-13.803c1.725,-5.324 4.388,-4.816 12.546,-11.936c0.989,-0.863 9.995,-7.677 11.901,-9.217c11.674,-9.438 18.885,2.053 12.438,9.131c-0.498,0.546 -32.959,34.154 -37.929,38.552c-16.74,14.81 -33.537,9.83 -71.96,10.834c-10.613,0.277 -16.964,5.551 -18.151,6.538c-1.159,0.962 -7.846,6.516 -12.718,13.886c-1.034,2.126 -3.927,7.154 -2.278,11.601c-4.194,0.2 -22.027,0.057 -22.248,0.051c-16.463,-0.417 -31.742,-12.924 -33.338,-17.105Z" style="fill:#9d9ea4;"/><path d="M188.939,18.563c0.001,-0.147 -1.586,-10.859 6.379,-16.074c0.931,-0.609 6.64,-4.348 13.851,-1.252c10.06,4.319 8.144,16.234 8.795,19.749c-0.449,15.399 0.916,28.042 -2.513,32.141c-10.616,12.694 -26.346,4.835 -26.511,-9.018c-0.016,-1.331 0.044,-1.299 0.014,-16.637c-0.005,-2.333 0.091,-8.366 -0.015,-8.91Z" style="fill:#9d9ea5;"/><path d="M53.937,18.601c0.001,-0.147 -0.221,-10.063 6.455,-16.112c0.824,-0.747 6.64,-4.348 13.851,-1.252c10.06,4.319 8.144,16.234 8.795,19.749c-0.449,15.399 0.65,28.117 -2.778,32.217c-10.616,12.694 -26.118,4.229 -26.246,-9.094c-0.013,-1.331 0.044,-1.299 0.014,-16.637c-0.005,-2.333 0.015,-8.328 -0.091,-8.872Z" style="fill:#9d9ea5;"/></g><g transform="matrix(208.558276,0,0,208.558276,314.29051,228.375682)"><path d="M0.222,-0l-0.197,-0.728l0.126,0l0.101,0.405c0.007,0.027 0.013,0.055 0.018,0.084c0.006,0.029 0.011,0.058 0.016,0.088c0.005,0.029 0.01,0.059 0.015,0.088l-0.018,0c0.005,-0.029 0.011,-0.058 0.016,-0.088c0.005,-0.029 0.011,-0.059 0.017,-0.088c0.006,-0.029 0.012,-0.057 0.019,-0.084l0.104,-0.405l0.129,0l0.104,0.405c0.007,0.027 0.013,0.055 0.019,0.084c0.006,0.029 0.012,0.058 0.017,0.088c0.006,0.029 0.011,0.059 0.017,0.088l-0.019,0c0.005,-0.029 0.01,-0.058 0.016,-0.088c0.005,-0.029 0.011,-0.059 0.017,-0.088c0.006,-0.029 0.012,-0.057 0.018,-0.084l0.101,-0.405l0.127,0l-0.198,0.728l-0.137,-0l-0.112,-0.419c-0.009,-0.035 -0.018,-0.074 -0.025,-0.115c-0.007,-0.041 -0.015,-0.086 -0.023,-0.135l0.028,0c-0.008,0.046 -0.016,0.09 -0.023,0.13c-0.007,0.041 -0.015,0.08 -0.025,0.119l-0.111,0.419l-0.137,-0Z" style="fill:#232c3a;fill-rule:nonzero;"/></g><g transform="matrix(208.558276,0,0,208.558276,524.885488,228.375682)"><path d="M0.07,-0l0,-0.546l0.115,0l0,0.546l-0.115,-0Zm0.058,-0.627c-0.019,0 -0.036,-0.006 -0.049,-0.019c-0.014,-0.013 -0.021,-0.029 -0.021,-0.047c0,-0.019 0.007,-0.034 0.021,-0.047c0.014,-0.013 0.03,-0.019 0.049,-0.019c0.019,0 0.036,0.006 0.05,0.019c0.014,0.013 0.021,0.028 0.021,0.047c0,0.018 -0.007,0.034 -0.021,0.047c-0.014,0.013 -0.03,0.019 -0.05,0.019Z" style="fill:#232c3a;fill-rule:nonzero;"/></g><g transform="matrix(208.558276,0,0,208.558276,578.247079,228.375682)"><path d="M0.07,-0l0,-0.546l0.112,0l0,0.089l0.006,0c0.01,-0.03 0.027,-0.054 0.052,-0.071c0.025,-0.017 0.053,-0.026 0.085,-0.026c0.007,0 0.015,0 0.024,0.001c0.009,0.001 0.016,0.001 0.022,0.002l0,0.108c-0.004,-0.001 -0.012,-0.003 -0.024,-0.004c-0.011,-0.001 -0.023,-0.002 -0.034,-0.002c-0.024,0 -0.046,0.005 -0.065,0.015c-0.019,0.01 -0.034,0.025 -0.045,0.043c-0.011,0.018 -0.016,0.039 -0.016,0.063l0,0.327l-0.115,-0Z" style="fill:#232c3a;fill-rule:nonzero;"/></g><g transform="matrix(208.558276,0,0,208.558276,662.973878,228.375682)"><path d="M0.176,-0.179l0,-0.14l0.019,0l0.208,-0.226l0.137,0l-0.245,0.266l-0.021,0l-0.098,0.101Zm-0.106,0.179l0,-0.728l0.115,0l0,0.728l-0.115,-0Zm0.343,-0l-0.188,-0.254l0.079,-0.082l0.25,0.336l-0.141,-0Z" style="fill:#232c3a;fill-rule:nonzero;"/></g><g transform="matrix(208.558276,0,0,208.558276,780.491579,228.375682)"></g><g transform="matrix(208.558276,0,0,208.558276,789.073613,228.375682)"><path d="M0.315,0.012c-0.05,0 -0.093,-0.008 -0.13,-0.025c-0.037,-0.016 -0.066,-0.039 -0.087,-0.069c-0.021,-0.029 -0.033,-0.064 -0.035,-0.103l0.071,0c0.002,0.029 0.012,0.053 0.028,0.073c0.016,0.02 0.038,0.035 0.064,0.045c0.027,0.01 0.056,0.015 0.088,0.015c0.036,0 0.068,-0.006 0.096,-0.018c0.028,-0.012 0.05,-0.029 0.066,-0.051c0.016,-0.022 0.024,-0.047 0.024,-0.075c0,-0.024 -0.006,-0.045 -0.019,-0.061c-0.013,-0.016 -0.03,-0.03 -0.053,-0.042c-0.023,-0.011 -0.049,-0.021 -0.08,-0.03l-0.086,-0.025c-0.058,-0.017 -0.103,-0.041 -0.134,-0.071c-0.031,-0.03 -0.047,-0.069 -0.047,-0.115c0,-0.039 0.01,-0.074 0.031,-0.104c0.021,-0.03 0.05,-0.053 0.086,-0.07c0.036,-0.017 0.077,-0.025 0.122,-0.025c0.046,0 0.086,0.008 0.121,0.025c0.035,0.017 0.063,0.04 0.083,0.069c0.02,0.029 0.031,0.062 0.033,0.099l-0.068,0c-0.004,-0.04 -0.022,-0.072 -0.053,-0.096c-0.031,-0.024 -0.071,-0.035 -0.118,-0.035c-0.033,0 -0.062,0.006 -0.088,0.017c-0.025,0.012 -0.045,0.027 -0.06,0.048c-0.014,0.02 -0.021,0.043 -0.021,0.069c0,0.025 0.007,0.046 0.021,0.063c0.014,0.017 0.032,0.031 0.054,0.041c0.022,0.011 0.045,0.019 0.068,0.026l0.076,0.022c0.023,0.007 0.047,0.015 0.07,0.025c0.023,0.01 0.045,0.023 0.064,0.038c0.019,0.015 0.035,0.033 0.046,0.055c0.012,0.022 0.018,0.047 0.018,0.078c0,0.039 -0.01,0.074 -0.03,0.105c-0.02,0.031 -0.049,0.056 -0.087,0.074c-0.038,0.018 -0.083,0.027 -0.136,0.027Z" style="fill:#232c3a;fill-rule:nonzero;"/></g><g transform="matrix(208.558276,0,0,208.558276,920.848227,228.375682)"><path d="M0.227,0.012c-0.033,0 -0.063,-0.006 -0.09,-0.019c-0.027,-0.013 -0.049,-0.032 -0.065,-0.056c-0.016,-0.025 -0.024,-0.055 -0.024,-0.09c0,-0.027 0.005,-0.05 0.015,-0.068c0.01,-0.018 0.025,-0.034 0.043,-0.045c0.019,-0.012 0.041,-0.021 0.067,-0.028c0.026,-0.007 0.054,-0.012 0.085,-0.016c0.03,-0.004 0.056,-0.007 0.077,-0.01c0.021,-0.003 0.037,-0.007 0.049,-0.014c0.011,-0.006 0.017,-0.016 0.017,-0.03l0,-0.013c0,-0.025 -0.005,-0.046 -0.015,-0.063c-0.01,-0.017 -0.024,-0.031 -0.043,-0.04c-0.019,-0.009 -0.042,-0.014 -0.069,-0.014c-0.026,0 -0.049,0.004 -0.068,0.012c-0.02,0.008 -0.036,0.018 -0.049,0.031c-0.013,0.013 -0.023,0.027 -0.029,0.042l-0.063,-0.021c0.012,-0.03 0.029,-0.054 0.051,-0.072c0.022,-0.018 0.046,-0.031 0.074,-0.039c0.027,-0.008 0.055,-0.012 0.083,-0.012c0.021,0 0.043,0.003 0.066,0.008c0.023,0.006 0.044,0.015 0.063,0.029c0.02,0.014 0.035,0.032 0.047,0.056c0.012,0.024 0.018,0.053 0.018,0.09l0,0.37l-0.065,-0l0,-0.086l-0.005,0c-0.008,0.017 -0.019,0.032 -0.035,0.048c-0.015,0.015 -0.034,0.027 -0.056,0.037c-0.022,0.009 -0.048,0.014 -0.078,0.014Zm0.01,-0.059c0.033,0 0.062,-0.007 0.086,-0.022c0.024,-0.015 0.043,-0.034 0.056,-0.059c0.013,-0.025 0.02,-0.052 0.02,-0.081l0,-0.078c-0.005,0.004 -0.013,0.008 -0.024,0.012c-0.011,0.004 -0.024,0.007 -0.038,0.009c-0.014,0.003 -0.028,0.005 -0.043,0.007c-0.014,0.002 -0.027,0.003 -0.038,0.005c-0.03,0.004 -0.056,0.009 -0.078,0.018c-0.022,0.008 -0.038,0.019 -0.049,0.033c-0.011,0.014 -0.017,0.032 -0.017,0.053c0,0.022 0.005,0.04 0.016,0.056c0.011,0.015 0.025,0.027 0.044,0.035c0.019,0.008 0.04,0.012 0.063,0.012Z" style="fill:#232c3a;fill-rule:nonzero;"/></g><g transform="matrix(208.558276,0,0,208.558276,1035.412709,228.375682)"><path d="M0.084,-0l0,-0.546l0.064,0l0,0.124l-0.007,0c0.007,-0.03 0.02,-0.056 0.036,-0.075c0.017,-0.02 0.036,-0.034 0.058,-0.044c0.022,-0.01 0.045,-0.014 0.069,-0.014c0.04,0 0.073,0.012 0.099,0.037c0.026,0.025 0.042,0.058 0.05,0.1l-0.011,0c0.006,-0.028 0.018,-0.053 0.035,-0.073c0.017,-0.02 0.038,-0.036 0.062,-0.047c0.024,-0.011 0.051,-0.016 0.08,-0.016c0.032,0 0.061,0.007 0.087,0.021c0.026,0.014 0.046,0.035 0.061,0.063c0.015,0.028 0.022,0.062 0.022,0.103l0,0.368l-0.066,-0l0,-0.366c0,-0.044 -0.012,-0.076 -0.035,-0.097c-0.023,-0.021 -0.052,-0.031 -0.086,-0.031c-0.026,0 -0.049,0.006 -0.069,0.017c-0.02,0.011 -0.035,0.027 -0.047,0.047c-0.011,0.02 -0.017,0.044 -0.017,0.071l0,0.36l-0.066,-0l0,-0.372c0,-0.038 -0.011,-0.068 -0.033,-0.09c-0.022,-0.022 -0.05,-0.033 -0.085,-0.033c-0.024,0 -0.047,0.006 -0.067,0.017c-0.021,0.011 -0.037,0.028 -0.049,0.049c-0.012,0.021 -0.019,0.047 -0.019,0.077l0,0.351l-0.066,-0Z" style="fill:#232c3a;fill-rule:nonzero;"/></g><g transform="matrix(208.558276,0,0,208.558276,1217.392026,228.375682)"></g></svg>