<?xml version="1.0" encoding="UTF-8" standalone="no"?><!DOCTYPE svg PUBLIC "-//W3C//DTD SVG 1.1//EN" "http://www.w3.org/Graphics/SVG/1.1/DTD/svg11.dtd"><svg width="100%" height="100%" viewBox="0 0 3262 938" version="1.1" xmlns="http://www.w3.org/2000/svg" xmlns:xlink="http://www.w3.org/1999/xlink" xml:space="preserve" xmlns:serif="http://www.serif.com/" style="fill-rule:evenodd;clip-rule:evenodd;stroke-linejoin:round;stroke-miterlimit:2;"><g id="Background"><path d="M268.964,52.685c91.139,0.12 91.2,-0.034 91.838,-0.382c4.156,-2.273 1.513,-61.117 42.006,-51.172c35.138,8.63 13.04,51.475 33.846,51.523c11.761,0.027 141.912,0.328 147.017,0.084c12.359,-0.59 -0.267,-46.213 31.273,-51.939c42.504,-7.717 37.089,48.976 41.383,51.336c7.933,4.36 141.006,0.987 153.263,0.676c12.992,-0.329 7.453,-6.519 7.71,-19.422c0.595,-29.86 31.473,-41.771 49.803,-26.586c16.34,13.537 12.673,37.137 12.961,40.564c1.433,17.099 96.88,-18.111 127.301,41.087c13.736,26.73 8.686,28.792 8.983,660.022c0.07,148.824 11.933,187.54 -83.538,187.751c-69.531,0.154 -796.094,1.766 -869.139,0.047c-75.807,-1.784 -62.822,-93.323 -62.829,-115.942c-0.194,-707.558 -0.153,-707.937 3.406,-718.966c19.066,-59.084 86.544,-48.716 100.453,-48.739c22.355,-0.036 32.111,6.456 32.955,-15.919c1.398,-37.057 30.716,-39.37 42.471,-34.46c24.468,10.221 19.34,43.015 19.471,44.872c0.526,7.449 15.621,5.632 69.366,5.564l-0,0.001Z" style="fill:#fff;"/><path d="M50.341,75.302c9.404,-2.593 9.323,-2.677 10.156,-2.801c9.887,-1.473 70.276,-1.517 71.55,-1.303c11.601,1.955 -3.304,55.474 30.652,59.001c48.175,5.004 34.004,-53.718 38.833,-57.931c2.678,-2.336 158.61,-1.348 159.547,-0.749c7.152,4.576 3.225,6.52 3.463,23.396c0.048,3.406 0.439,31.187 23.947,35.208c46.442,7.943 36.049,-51.545 38.812,-55.245c7.571,-10.135 143.819,-3.458 156.311,-2.846c13.792,0.676 -2.742,52.881 30.783,57.897c49.214,7.363 34.031,-53.091 41.554,-58.306c1.997,-1.385 156.167,-0.48 156.939,-0.223c8.238,2.736 -3.774,59.986 34.339,59.154c39.953,-0.872 32.379,-46.669 32.903,-53.128c0.597,-7.364 16.072,-6.772 62.949,-5.78c60.809,1.286 55.464,53.256 54.545,101.933c-0.039,2.07 -0.006,6.84 -6.434,7.881c-8.558,1.387 -777.797,0.375 -845.431,0.286c-119.677,-0.157 -125.949,2.547 -126.164,-8.169c-1.21,-60.394 -3.513,-78.663 30.746,-98.276l-0,0.001Z" style="fill:#2593a3;"/><path d="M1160.501,402.866c-0.28,-24.616 0.591,-36.22 15.272,-36.633c155.397,-4.37 187.378,-3.659 241.367,41.764c75.34,63.387 85.968,296.088 -135.291,297.358c-117.696,0.675 -119.598,0.189 -120.988,-4.379c-2.977,-9.782 -0.576,-274.262 -0.36,-298.11Zm218.133,150.73c8.968,-100.368 -30.762,-125.7 -127.597,-123.434c-9.193,0.215 -6.795,9.304 -6.856,95.898c-0.07,98.592 -3.293,106.104 10.283,106.238c51.461,0.51 107.507,0.944 124.17,-78.702Z" style="fill:#fff;"/><path d="M3261.561,560.325c-0.299,8.085 -2.443,66.038 -23.803,98.285c-43.657,65.91 -133.361,67.156 -172.387,20.038c-10.165,-12.272 -0.423,27.52 -11.144,27.806c-72.564,1.938 -74.845,0.234 -75.602,-5.785c-0.297,-2.357 -0.467,-304.78 0.263,-328.6c0.507,-16.529 -2.488,-23.035 13.848,-22.86c61.602,0.661 67.931,-5.033 68.291,5.78c3.244,97.263 -4.542,103.828 3.633,102.851c4.123,-0.493 7.638,-13.18 44.389,-24.485c2.104,-0.647 49.611,-2.876 65.109,0.212c43.664,8.7 79.128,51.006 86.193,109.527c0.69,5.716 0.519,11.514 1.209,17.23l0.001,0.001Zm-145.557,77.138c96.792,-6.912 73.729,-158.747 -13.845,-135.769c-47.599,12.489 -67.939,125.989 13.845,135.769Z" style="fill:#fff;"/><path d="M2518.595,382.342c0.037,-1.128 0.422,-12.838 1.575,-14.023c5.056,-5.197 6.159,-1.914 27.773,-1.988c23.397,-0.08 52.896,-3.006 54.01,5.833c0.439,3.481 -0.12,298.969 -0.169,324.966c-0.022,11.74 -6.913,9.852 -74.363,9.51c-12.588,-0.064 -8.388,-8.043 -8.897,-136.122c-0.051,-12.8 -14.74,-8.972 -80.096,-9.145c-21.258,-0.057 -30.212,-5.097 -30.298,16.018c-0.51,124.138 1.741,129.29 -7.381,129.501c-70.441,1.635 -71.499,1.826 -75.291,-2.86c-2.346,-2.899 -0.535,-223.249 -1.306,-270.288c-0.631,-38.561 -2.602,-54.847 2.924,-64.034c2.901,-4.824 11.008,-2.635 77.075,-1.6c14.577,0.228 -2.328,118.3 7.489,122.319c2.964,1.213 96.294,0.695 98.57,0.445c11.878,-1.305 8.451,-7.515 8.386,-108.532l-0.001,-0Z" style="fill:#fff;"/><path d="M1998.54,440.294c5.428,-3.648 5.511,-3.329 12.157,-3.069c17.721,0.694 72.013,-0.781 74.726,0.75c9.496,5.36 57.509,158.13 59.334,159.233c5.05,3.051 11.151,-20.953 13.128,-26.651c39.971,-115.22 44.693,-132.941 54.748,-133.099c75.484,-1.19 80.093,0.409 77.981,6.3c-2.11,5.884 -17.147,47.822 -28.921,72.589c-21.36,44.935 -118.706,300.577 -125.975,316.733c-3.434,7.634 -84.606,4.045 -85.824,2.795c-4.531,-4.651 49.64,-124.695 50.917,-131.608c2.082,-11.277 -92.325,-244.057 -102.271,-263.974l0,0.001Z" style="fill:#fff;"/><path d="M1685.901,677.13c-46.673,55.72 -177.011,54.947 -177.9,-89.475c-0.072,-11.766 -0.852,-138.422 0.122,-147.079c0.673,-5.977 2.59,-9.617 74.852,-7.001c25.256,0.914 -18.658,167.477 31.645,197.221c27.58,16.308 74.148,2.668 75.192,-49.966c1.298,-65.445 -3.474,-141.278 3.542,-145.581c0.658,-0.404 72.009,-4.873 77.298,2.125c1.848,2.445 1.51,2.713 1.589,133.173c0.006,10.417 0.077,127.197 -0.204,130.216c-0.948,10.184 -79.452,6.429 -81.39,2.471c-2.564,-5.24 1.943,-28.88 -1.602,-28.889c-1.4,-0.003 -1.744,2.789 -3.144,2.786l0,-0.001Z" style="fill:#fff;"/><path d="M2835.117,679.188c-51.286,50.717 -169.168,54.382 -178.136,-84.675c-0.498,-7.717 -0.479,-146.822 0.225,-150.648c1.228,-6.682 80.171,-7.418 81.718,0.23c8.391,41.475 -26.184,185.625 41.508,192.983c81.492,8.858 52.929,-98.726 57.574,-193.268c0.261,-5.319 6.929,-5.541 7.688,-5.566c71.567,-2.384 73.688,-0.109 74.517,5.813c0.235,1.683 0.35,255.476 0.228,256.459c-0.742,5.952 -3.032,7.273 -74.726,6.116c-6.148,-0.099 -6.255,-2.589 -6.518,-26.894c-1.359,-0.183 -2.718,-0.366 -4.077,-0.549l-0.001,-0.001Z" style="fill:#fff;"/><path d="M216.46,522.943c38.399,2.192 38.197,3.211 76.709,0.986c6.7,-0.387 5.46,-13.97 5.325,-73.115c-0.054,-23.654 -8.852,-35.418 14.957,-35.005c48.716,0.844 113.079,-17.597 111.396,59.951c-0.753,34.714 -0.327,40.851 1.797,60.028c11.402,2.222 100.705,-0.718 148.118,-1.361c0.379,13.715 -7.028,33.953 -9.208,33.056c-1.776,-0.731 -9.441,14.418 -30.966,-1.201c-11.563,-8.39 -11.744,-8.04 -26.208,-7.117c-8.765,0.56 -12.995,-0.738 -10.895,7.926c1.483,6.122 -0.15,6.216 0.007,78.735c0.062,28.719 -8.35,25.699 -28.786,46.003c-37.727,37.486 -40.325,38.132 -93.659,37.74c-145.635,-1.07 -145.603,-0.275 -158.222,-1.269c-1.14,-21.157 -0.53,-177.669 -0.383,-178.644c0.724,-4.814 6.698,-4.375 79.986,-4.212c19.128,0.043 6.332,48.849 10.692,93.428c1.025,10.481 2.461,11.771 13.134,11.797c54.214,0.134 95.805,8.478 96.644,-39.036c2.912,-164.796 -0.795,-168.055 -11.479,-177.446c-21.36,-18.776 -95.584,-9.376 -97.25,-6.682c-3.56,5.755 3.406,103.457 -4.829,105.981c-5.769,1.768 -5.932,-0.68 -75.42,0.037c-12.157,0.125 -10.162,-3.997 -11.459,-10.581l-0.001,0.001Z" style="fill:#1f80b6;"/><path d="M717.402,355.413c75.286,-0.065 75.239,-0.553 81.772,-0.228c7.718,0.384 3.629,5.619 4.09,369.421c-5.331,2.888 -8.405,4.554 -75.748,2.585c-10.007,-0.293 -7.199,-4.622 -8.663,-6.084c-1.768,-1.764 -4.887,-1.679 -6.656,-3.443c-0.287,-32.697 -0.173,-32.37 -0.093,-58.151c1.752,-1.745 4.83,-1.677 6.583,-3.422c0.138,-0.137 0.493,-55.572 0.124,-65.016c-1.091,-27.852 -29.054,-21.428 -49.386,-22.282c-7.613,-0.32 -3.587,-27.323 -5.276,-32.468c-0.6,-1.828 -4.054,-1.587 -4.654,-3.415c0.142,-25.989 -1.884,-28.142 1.979,-28.523c1.719,-0.17 3.92,-0.387 21.589,-0.088c24.092,0.408 35.914,8.297 35.008,-15.817c0.455,-13.011 1.109,-12.912 0.974,-116.091c-0.548,-5.66 -1.096,-11.319 -1.643,-16.979l-0,0.001Z" style="fill:#e64036;"/><path d="M1844.426,642.146c-6.301,-70.804 -0.726,-103.506 -2.744,-136.421c-0.622,-10.141 -5.808,-5.061 -26.171,-6.157c-9.494,-0.511 -8.918,-59.921 -0.067,-60.355c6.851,-0.336 17.838,0.384 24.656,-0.37c1.519,-0.168 1.412,-36.324 1.641,-59.982c0.096,-9.886 8.647,-8.126 73.172,-7.862c13.955,0.057 9.219,25.234 9.343,59.285c0.053,14.573 8.071,7.59 48.977,9.151c8.323,0.317 6.164,33.278 5.865,52.342c-0.214,13.634 -43.362,5.795 -51.335,8.804c-8.316,3.138 -4.185,6.779 -3.472,111.049c0.214,31.252 43.072,23.023 48.837,23.175c9.122,0.241 7.393,16.523 7.015,62.362c-0.074,8.926 -4.224,9.253 -10.524,9.327c-76.062,0.893 -108.223,-2.34 -125.191,-64.347l-0.002,-0.001Z" style="fill:#fff;"/><path d="M433.831,343.965c13.277,2.159 64.694,62.006 63.511,68.595c-0.04,2.813 -0.357,89.869 0.441,93.057c0.155,0.62 0.514,0.262 7.115,3.628c12.53,1.963 13.935,5.188 30.566,-4.275c6.455,-6.651 13.93,-10.087 22.765,-6.163c13.038,6.782 15.565,26.685 16.533,35.503c-47.998,3.077 -148.118,1.478 -148.118,1.478c-2.124,-19.177 -3.9,-18.538 -3.912,-19.96c-0.011,-1.323 1.877,-2.091 2.042,-3.403c0.376,-2.992 -0.549,-2.977 0.204,-37.69c1.683,-77.547 -62.812,-58.081 -111.528,-58.925c-23.808,-0.413 -15.011,11.351 -14.957,35.005c0.135,59.146 1.375,72.728 -5.325,73.115c-38.512,2.226 -38.31,1.206 -76.709,-0.986c-0.549,-163.833 -3.041,-180.855 -0.394,-181.237c9.129,-1.319 158.886,1.226 198.829,-1.072c5.286,-0.304 18.504,4.547 18.936,3.332l0.001,-0.002Z" style="fill:#4dac5e;"/><path d="M426.292,750.764c20.12,-3.236 24.084,-8.425 64.106,-47.805c17.671,-17.387 7.905,7.368 10.861,31.899c3.407,28.269 85.143,11.664 99.899,16.228c3.456,1.069 4.115,2.567 3.848,134.261c-0.044,21.734 7.498,32.091 -14.388,32.135c-170.84,0.347 -171.582,0.44 -173.342,-2.25c-2.629,-4.02 -1.308,-143.969 -1.19,-156.487c0.074,-7.786 2.375,-7.214 10.206,-7.981Z" style="fill:#415057;"/><path d="M20.241,368.747c15.932,-3.515 171.678,-2.036 181.996,-0.243c0.118,13.956 1.342,158.223 0.326,174.46c-0.492,7.866 -22.926,4.898 -97.843,5.276c-68.148,0.344 -82.326,2.035 -84.437,-5.229c-0.179,-0.615 -0.15,-60.73 -0.073,-157.214l0.031,-17.05Z" style="fill:#415057;"/><path d="M202.521,573.978c0.11,161.217 0.896,164.954 -5.197,165.189c-5.172,0.199 -170.09,0.199 -171.481,-0.016c-5.711,-0.883 -5.914,-3.697 -5.738,-141.228c0.003,-1.99 -2.804,-38.588 5.66,-38.926c0.176,-0.007 170.257,-0.159 171.627,0.087c6.974,1.251 5.046,12.769 5.13,14.894l-0.001,0Z" style="fill:#415057;"/><path d="M843.845,558.97c149.135,-0.106 152.32,-0.993 153.255,4.879c2.106,13.236 0.211,13.286 0.286,167.525c0.004,7.938 -1.779,8.177 -9.808,8.191c-13.157,0.024 -160.349,0.289 -164.463,-0.283c-6.992,-0.972 -5.541,-4.726 -5.538,-124.257c0,-4.091 0.002,-50.743 0.121,-51.136c2.276,-7.499 4.938,-3.92 26.147,-4.921l0,0.002Z" style="fill:#415057;"/><path d="M818.187,372.864c-7.136,-75.158 -1.928,-170.611 -1.199,-171.263c1.939,-1.733 2.343,-1.569 170.582,-1.623c3.279,-0.001 9.565,-0.577 9.654,7.867c0.648,61.375 0.139,145.267 -0.197,164.103c-72.17,1.664 -125.739,2.647 -178.841,0.916l0.001,0Z" style="fill:#415057;"/><path d="M710.527,750.667c90.791,0.875 92.298,0.982 93.193,4.253c0.213,0.778 1.821,158.302 -0.939,161.235c-2.412,2.563 -182.593,2.067 -184.888,0.139c-3.717,-3.124 -1.791,-4.269 -2.049,-157.545c-0.004,-2.246 -1.149,-9.168 5.729,-9.256c66.139,-0.849 81.864,0.546 88.954,1.174Z" style="fill:#415057;"/><path d="M227.912,751.123c172.183,0.301 175.547,-1.416 176.715,4.705c0.275,1.441 1.488,156.241 -0.236,159.219c-2.678,4.626 -184.262,3.146 -186.495,0.837c-2.279,-2.356 -1.445,-24.173 -1.586,-150.28c-0.001,-0.871 -0.011,-9.45 0.325,-10.889c1.168,-5.002 3.03,-2.75 11.276,-3.593l0.001,0.001Z" style="fill:#415057;"/><path d="M20.698,878.374c-0.127,-9.831 -1.463,-112.831 -0.415,-122.893c0.974,-9.348 36.001,-5.934 36.539,-5.933c112.729,0.192 143.951,-0.468 146.144,0.523c4.085,1.847 2.744,163.597 0.677,165.79c-1.567,1.663 -28.051,1.705 -30.494,1.709c-125.343,0.197 -140.068,6.62 -152.451,-39.195l-0,-0.001Z" style="fill:#415057;"/><path d="M815.209,769.013c0.776,-14.535 -3.541,-18.532 4.967,-19.226c1.858,-0.151 168.647,-0.188 170.656,0.091c8.833,1.227 6.283,19.342 6.363,63.623c0.049,27.075 10.399,100.889 -40.307,103.861c-3.759,0.22 -136.56,0.284 -137.388,0.136c-5.433,-0.97 -4.329,-3.949 -4.291,-148.485Z" style="fill:#415057;"/><path d="M20.25,354.866c-1.172,-150.13 -1.149,-153.529 5.641,-154.656c0.011,-0.002 172.675,-0.545 174.859,0.095c4.672,1.368 4.402,3.456 4.272,103.338c-0.038,29.156 -1.842,28.89 -2.488,58.164c-0.782,-0.718 0.482,-2.453 -0.3,-3.172c-4.994,-4.586 -150.007,2.348 -181.984,-3.769Z" style="fill:#415057;"/><path d="M418.947,331.789c-6.731,-9.565 -3.042,-10.459 -3.048,-28.151c-0.031,-95.619 -1.113,-101.304 3.523,-102.926c8.721,-3.053 163.863,-0.829 178.111,-0.624c8.115,0.116 8.955,4.511 6.939,134.414c-7.41,-0.411 -72.631,-4.029 -92.744,1.773c-8.779,7.723 -12.762,17.254 -10.612,58.918c-3.866,-6.065 -52.763,-67.756 -82.168,-63.403l-0.001,-0.001Z" style="fill:#415057;"/><path d="M995.696,384.989c1.957,3.289 3.572,159.766 0.312,162.838c-4.36,4.109 -172.611,3.579 -175.912,-1.343c-3.88,-5.786 -4.41,-155.981 -2.186,-160.401c2.072,-4.118 175.623,-4.729 177.785,-1.095l0.001,0.001Z" style="fill:#415057;"/><path d="M834.085,398.308c4.271,-4.578 139.84,-3.689 144.286,1.564c4.126,4.873 4.347,127.482 -0.855,131.733c-5.467,4.468 -139.156,3.149 -144.368,-2.112c-5.228,-5.278 -3.349,-126.591 0.936,-131.184l0.001,-0.001Z" style="fill:#f58f23;"/><path d="M152.615,576.614c2.403,0.061 25.744,0.656 29.611,5.131c4.887,5.655 3.326,40.962 3.326,46.98c-0.005,77.739 5.691,90.332 -19.227,90.459c-116.737,0.595 -117.521,3.182 -125.621,-2.77c-7.869,-5.783 -6.885,-7.675 -5.38,-121.951c0.291,-22.11 11.812,-17.4 117.292,-17.849l-0.001,0Z" style="fill:#4bad5a;"/><path d="M387.566,878.501c-0.172,1.905 5.226,26.278 -19.365,26.173c-125.135,-0.535 -131.58,2.431 -134.461,-12.294c-0.366,-1.871 -1.961,-109.166 0.54,-116.705c3.382,-10.195 6.61,-12.087 133.911,-9.709c23.722,0.443 19.448,12.103 19.375,112.535Z" style="fill:#e84239;"/><path d="M982.186,697.141c-1.156,27.661 -13.823,21.76 -90.433,21.879c-38.729,0.06 -59.088,5.586 -59.488,-18.433c-1.923,-115.458 -0.126,-117.752 8.587,-122.245c2.316,-1.194 128.383,-5.528 136.443,2.468c6.071,6.023 4.697,10.281 4.89,116.331l0.001,0Z" style="fill:#1e7cb9;"/><path d="M508.497,904.559c-55.006,-0.019 -74.635,6.605 -74.828,-22.632c-0.719,-108.98 0.704,-111.712 9.136,-114.567c4.722,-1.599 132.404,-4.498 139.79,2.847c5.375,5.346 6.026,5.992 5.23,94.614c-0.005,0.59 3.169,29.069 -7.997,36.839c-5.602,3.899 -27.872,2.948 -71.332,2.898l0.001,0.001Z" style="fill:#f9ac1b;"/><path d="M632.633,782.699c3.146,-20.055 12.809,-16.366 40.114,-16.342c103.04,0.09 112.79,-3.175 113.336,16.322c3.205,114.587 -1.411,117.079 -10.567,120.114c-13.821,4.581 -113.412,1.918 -123.271,1.655c-24.157,-0.646 -19.42,-12.664 -19.611,-121.748l-0.001,-0.001Z" style="fill:#19a7d0;"/><path d="M982.524,259.148c-0.055,77.667 3.163,96.764 -15.368,97.32c-128.569,3.859 -131.839,-1.12 -134.128,-11.644c-0.062,-0.287 -3.426,-115.175 1.856,-122.434c6.157,-8.461 10.8,-6.203 115.044,-6.501c5.3,-0.015 20.977,-1.163 26.34,3.454c8.756,7.538 6.118,29.02 6.256,39.805Z" style="fill:#e44139;"/><path d="M101.282,904.321c-42.931,-0.525 -65.137,6.372 -65.707,-22.372c-2.155,-108.595 -0.102,-110.851 8.227,-114.771c8.373,-3.941 8.539,-1.931 115.665,-1.433c37.188,0.173 28.375,18.306 28.357,68.281c-0.012,34.187 5.976,69.61 -18.12,70.421c-5.471,0.184 -5.373,-0.423 -68.421,-0.126l-0.001,-0Z" style="fill:#e84946;"/><path d="M217.756,333.925c-1.774,-10.55 -2.841,-129.434 0.389,-132.338c2.006,-1.803 2.314,-1.635 150.062,-1.538c9.748,0.006 36.309,-3.784 36.677,7.805c0.314,9.902 5.83,112.909 0.515,125.204c-11.478,0.468 -176.599,1.718 -187.643,0.867Z" style="fill:#415057;"/><path d="M515.788,355.216c66.756,0.215 66.61,-0.634 87.194,0.533c6.749,26.469 -6.284,127.467 8.617,138.81c5.051,3.845 88.92,2.171 92.093,1.067c17.053,-5.932 0.188,-115.773 10.412,-140.414l3.298,0.202c0.548,5.66 1.096,11.319 1.643,16.979c-8.412,22.915 -1.904,23.563 -2.625,64.694c-0.301,17.141 0.154,16.82 1.651,51.397c0.906,24.114 -10.917,16.224 -35.008,15.817c-17.669,-0.299 -19.87,-0.082 -21.589,0.088c-3.863,0.381 -1.837,2.534 -1.979,28.523c0.027,11.489 0.053,22.978 0.08,34.468c-18.224,3.68 -38.817,-3.517 -55.265,5.783c-13.502,7.634 -14.524,5.45 -26.828,14.973c-4.279,3.312 -17.49,29.509 -59.906,-4.107c12.957,-15.355 16.847,9.13 35.335,5.96c18.169,-3.116 45.999,-35.905 23.418,-87.515c1.225,-1.647 -2.792,-3.601 -1.567,-5.249c3.037,-4.084 0.56,-4.046 -9.44,-8.752c-18.481,-8.696 -46.014,-16.693 -46.259,10.604c-7.638,5.338 -1.162,-121.124 -3.275,-143.861Z" style="fill:#f5b31d;"/><path d="M786.688,334.085c-10.529,-2.052 -75.047,-1.546 -79.208,1.338c-6.361,4.408 -5.526,4.981 -8.045,12.368c-0.414,2.341 -0.829,4.682 -1.243,7.023c-37.509,1.074 -63.993,12.218 -64.345,-27.227c-0.883,-98.715 -0.654,-99.483 4.436,-106.306c2.635,-3.533 3.344,-5.851 126.829,-5.199c29.796,0.157 18.332,18.263 21.577,118.002l-0.001,0.001Z" style="fill:#faac20;"/><path d="M387.691,440.084c17.987,4.874 17.207,37.066 16.153,116.78c-0.481,36.323 6.133,69.258 -15.167,79.904c-19.27,9.632 -68.375,3.517 -68.375,3.517c0,0 -2.277,-179.799 0.791,-200.201c23.12,-8.696 62.272,-3.565 66.599,0l-0.001,-0Z" style="fill:#415057;"/><path d="M697.877,707.421c0.013,2.47 0.155,29.592 -1.111,30.855c-0.535,0.533 -78.465,5.154 -78.702,-3.485c-0.293,-10.67 -2.174,-79.213 0.51,-133.424c0.317,-6.393 2.926,-8.301 71.307,-7.319c10.282,0.148 7.932,6.088 7.996,113.373Z" style="fill:#415057;"/><path d="M659.575,567.378c-0.027,6.786 -0.104,6.712 2.863,12.849c-25.143,0.055 -55.463,-3.428 -57.277,7.594c-0.121,0.734 -0.486,0.648 -0.368,140.189c-27.982,-0.015 -82.23,5.641 -90.265,0.017c-0.028,-11.523 1.418,-11.358 3.047,-144c42.416,32.035 56.514,6.713 59.906,4.107c12.821,-9.853 12.823,-11.235 27.109,-17.498c18.47,-8.098 36.843,-0.732 54.984,-3.258l0.001,0Z" style="fill:#f28f23;"/><path d="M786.688,334.085c-3.244,-99.74 8.219,-117.845 -21.577,-118.002c-123.485,-0.652 -124.194,1.666 -126.829,5.199c-5.089,6.823 -5.318,7.591 -4.436,106.306c0.353,39.444 26.837,28.3 64.345,27.227l-0.142,13.933c0,0 -38.577,-0.167 -45.285,0c-22.871,0.569 -20.083,-0.476 -34.335,-0.109c-2.811,-40.423 -4.432,-163.371 -0.149,-167.246c1.138,-1.029 1.038,-1.535 109.217,-1.418c65.024,0.07 76.636,-2.328 76.774,7.676c1.787,129.152 2.504,135.048 -8.348,135.503c-5.203,0.218 -4.846,-0.57 -9.918,-2.27c0.761,-2.214 0.472,-2.083 0.681,-6.797l0.002,-0.002Z" style="fill:#415057;"/><path d="M618.511,382.399l80.251,-0.407l0.272,101.802l-79.524,0.664l-0.999,-102.06l0,0.001Z" style="fill:#415057;"/><path d="M570.827,556.106c-3.835,15.868 -14.668,27.151 -25.68,22.134c-2.524,-1.15 -7.336,-2.71 -16.507,-10.113c-1.467,-1.184 -22.073,-5.442 -23.593,5.838c-0.445,3.301 0.781,75.56 0.892,82.13c0.361,21.306 -64.003,78.644 -79.594,81.915c-2.061,0.432 -152.804,2.112 -164.296,1.271c-34.679,-2.538 -43.196,1.342 -45.224,-10.98c12.619,0.994 12.588,0.199 158.222,1.269c53.334,0.392 55.932,-0.255 93.659,-37.74c20.436,-20.305 28.848,-17.284 28.786,-46.003c-0.157,-72.519 1.476,-72.613 -0.007,-78.735c-2.1,-8.664 2.13,-7.366 10.895,-7.926c14.464,-0.924 15.767,-2.626 27.61,5.363c19.889,13.416 23.3,0.146 25.122,-1.605c4.579,-4.401 7.535,-7.715 9.715,-6.818Z" style="fill:#fff;"/><path d="M234.896,319.973c-1.448,-0.245 -1.374,-74.175 -0.161,-101.817c0.77,-17.532 9.263,-7.768 130.015,-8.992c30.966,-0.314 21.484,19.482 22.714,97.654c0.163,10.348 -7.843,18.597 -24.855,17.115c-6.712,-0.585 -108.313,0.174 -120.372,0.211c-6.885,0.021 -6.566,-4.04 -7.342,-4.171l0.001,0Z" style="fill:#e44139;"/><path d="M864.741,50.443c-0.122,28.67 5.617,73.402 -20.989,65.313c-19.611,-5.962 -12.103,-89.297 -6.014,-95.49c2.271,-2.31 25.43,-22.568 27.003,30.176l0,0.001Z" style="fill:#55ac6a;"/><path d="M184.881,36.507c0.079,39.921 6.572,88.883 -22.029,79.029c-6.003,-2.068 -13.783,-4.749 -9.81,-78.751c1.254,-23.352 26.979,-35.41 31.839,-0.278Z" style="fill:#55ab6a;"/><path d="M637.365,33.253c0.424,50.648 5.758,88.861 -19.48,82.676c-1.41,-0.346 -11.083,-2.716 -11.566,-13.98c-3.331,-77.685 2.968,-81.18 8.91,-84.478c18.362,-10.19 21.823,13.63 22.136,15.782Z" style="fill:#56ab69;"/><path d="M410.968,54.117c-0.233,22.724 7.071,72.583 -22.08,60.933c-1.186,-0.474 -8.621,-3.445 -8.908,-13.254c-1.297,-44.268 -4.263,-98.33 21.753,-84.404c12.7,6.798 9.496,24.057 9.235,36.725Z" style="fill:#55ab6a;"/><path d="M659.495,532.91c0.6,1.828 4.054,1.587 4.654,3.415c1.689,5.145 -2.336,32.148 5.276,32.468c20.333,0.854 48.296,-5.57 49.386,22.282c0.37,9.444 0.014,64.879 -0.124,65.016c-1.752,1.745 -4.83,1.677 -6.583,3.422c-0.556,-68.287 4.216,-79.114 -18.823,-79.219c-2.467,-0.011 -2.285,-0.005 -30.844,-0.067c-2.968,-6.138 -2.89,-6.064 -2.863,-12.849c-0.027,-11.489 -0.053,-22.978 -0.08,-34.468l0.001,0Z" style="fill:#ac2a41;"/><path d="M514.529,728.028c4.894,5.508 53.693,-0.776 90.265,-0.017c-2.685,13.652 -8.919,9.328 -72.342,10.249c-12.221,0.177 -15.761,1.891 -17.923,-10.232Z" style="fill:#d8732f;"/><path d="M712.199,717.664c1.768,1.764 4.887,1.679 6.656,3.443c1.465,1.461 -1.344,5.791 8.663,6.084c67.343,1.968 70.417,0.303 75.748,-2.585c-1.118,8.475 1.214,13.636 -14.169,13.849c-73.889,1.023 -76.565,-0.791 -77.187,-7.316c-0.102,-1.073 0.021,-0.998 0.289,-13.475Z" style="fill:#a3284b;"/><path d="M604.472,334.501c-0.348,3.188 -0.697,6.377 -1.045,9.565c-5.407,0.757 -58.61,2.021 -87.476,0.146c-1.408,-2.646 -2.815,-5.292 -4.223,-7.938c20.114,-5.802 85.335,-2.184 92.744,-1.773Z" style="fill:#a7b8ad;"/><path d="M515.95,344.212c28.867,1.876 82.07,0.612 87.476,-0.146c-0.603,6.067 0.024,5.834 -0.445,11.682c-20.584,-1.167 -20.438,-0.318 -87.194,-0.533c-0.088,-0.829 -0.046,-0.784 0.162,-11.004l0.001,0.001Z" style="fill:#696021;"/><path d="M786.688,334.085c-0.209,4.714 0.08,4.583 -0.681,6.797c-5.112,1.125 -5.293,1.165 -65.379,2.469c-5.359,0.116 -5.231,-0.646 -10.259,1.655c-5.584,1.894 -5.219,1.826 -10.934,2.785c2.519,-7.387 1.684,-7.96 8.045,-12.368c4.161,-2.883 68.679,-3.389 79.208,-1.338Z" style="fill:#9a8443;"/><path d="M497.342,412.561l4.036,-2.448c6.078,10.402 2.357,10.543 3.519,99.132c-6.602,-3.366 -6.96,-3.008 -7.115,-3.628c-0.797,-3.187 -0.48,-90.243 -0.441,-93.057l0.001,0.001Z" style="fill:#218f6b;"/><path d="M518.88,498.711c0.377,-42.069 56.526,-19.694 62.305,-1.304c0.615,1.958 -0.526,11.09 -1.751,12.737c-20.211,-29.015 -37.831,-26.159 -60.554,-11.433Z" style="fill:#d78527;"/><path d="M719.046,372.392c0.135,103.179 -0.519,103.08 -0.974,116.091c-1.497,-34.577 -1.951,-34.256 -1.651,-51.397c0.721,-41.131 -5.787,-41.78 2.625,-64.694Z" style="fill:#dd6352;"/></g></svg>